<svg width="277" height="51" viewBox="0 0 277 51" fill="none" xmlns="http://www.w3.org/2000/svg">
<path d="M14.2313 43.0987L16.0599 41.0141L13.8773 34.0459L7.56557 34.4032L2.90549 33.6885C2.61055 34.7407 1.8673 36.7975 1.25382 38.0363C0.486976 39.5848 -0.102907 41.6097 0.0150697 42.2053C0.109451 42.6818 2.17797 44.7861 3.20044 45.7788C3.27909 45.6795 3.56617 45.3261 4.08526 44.7067C4.60436 44.0873 5.83525 41.9869 6.38581 41.0141C6.6021 41.0935 7.28243 41.3596 8.27343 41.7884C9.26444 42.2172 12.6582 42.8406 14.2313 43.0987Z" fill="#71717A"/>
<path d="M30.8519 43.1531C30.3689 42.4692 26.2634 38.8381 24.271 37.108L28.1954 29.9027C30.3085 31.2868 34.6556 34.1404 35.1386 34.4823C35.6216 34.8243 36.8291 38.2478 37.3725 39.9168L42.927 39.062V39.9168C42.8063 40.3239 42.5286 41.1991 42.3837 41.4434C42.2388 41.6876 41.317 42.5221 40.8743 42.9089C40.6529 42.9903 40.1135 43.2264 39.7271 43.5195C39.3407 43.8126 35.6618 45.9619 33.8707 47C33.0657 46.0026 31.3349 43.837 30.8519 43.1531Z" fill="#A1A1AA"/>
<path d="M36.165 42.1151L37.4329 39.9168L42.8667 39.062L36.165 42.1151Z" fill="#71717A"/>
<path d="M37.5286 19.3471C37.3963 19.0812 36.8486 16.5035 36.5913 15.2479L31.9048 15.8572L30.9124 25.1635C33.9264 26.4192 40.0979 28.9636 40.6713 29.0966C41.2447 29.2295 44.3654 29.152 45.8541 29.0966L46.5708 28.0441C46.8465 27.2316 47.3538 25.4516 47.1773 24.8312C47.0009 24.2108 45.9643 23.1324 45.4681 22.6708C44.7514 22.4123 43.0642 21.862 42.0497 21.7291C40.7816 21.5629 39.0173 21.6183 38.7967 21.4521C38.5762 21.2859 37.694 19.6795 37.5286 19.3471Z" fill="#71717A"/>
<path d="M10.5657 30.3912C10.5657 28.193 12.4977 22.9417 13.5241 19.7665L26.8067 21.1709L11.1091 34.3602C10.9682 33.4036 10.5657 32.5894 10.5657 30.3912Z" fill="#71717A"/>
<path d="M44.2552 7.432C44.6899 7.96935 47.2538 9.36563 48.4815 9.9966C49.9788 11.8529 43.913 12.9276 40.693 13.2329L30.9122 4.62317C30.6908 4.60281 30.2601 4.34228 30.3084 3.46299C30.3688 2.36388 31.5763 0.287785 32.9046 0.104599C33.9672 -0.0419502 35.1184 1.02052 35.5611 1.57008C36.0642 1.54973 37.1067 1.50902 37.2516 1.50902C37.3965 1.50902 37.5937 1.14265 37.6742 0.959463C37.8956 0.511677 38.592 -0.286196 39.6063 0.104599C40.6206 0.495394 40.9144 2.1807 40.9345 2.9745L41.4175 3.34087C41.6107 3.48742 43.3898 4.98954 44.2552 5.72228C44.074 6.06829 43.8205 6.89466 44.2552 7.432Z" fill="#E4E4E7"/>
<path d="M46.61 13.8435C46.9481 14.1854 47.7974 13.9249 48.1798 13.7824C49.2062 11.4621 48.9888 11.0347 48.9647 10.8515C48.9005 10.3648 48.6427 10.017 48.4817 9.93555C48.4414 9.93555 48.3247 9.95997 48.1798 10.0577C47.9987 10.1798 47.8779 10.1798 47.7571 10.2409C47.6364 10.3019 46.8515 10.2409 46.0667 10.1798L46.0666 10.1798C45.2818 10.1187 44.6176 11.0957 44.7384 11.7063C44.8246 12.1422 46.1874 13.4161 46.61 13.8435Z" fill="#3F3F46"/>
<path d="M43.7119 11.7063C43.422 11.7552 41.9811 11.6453 41.2968 11.5842C41.2365 12.4187 41.2002 14.2709 41.5383 15.0037C41.8764 15.7364 44.054 15.9196 45.1005 15.9196L47.3344 14.7594L48.1796 13.7824C47.9985 13.7621 47.4914 13.7091 46.9118 13.6603C46.3322 13.6114 45.2212 12.2559 44.7382 11.5842C44.5169 11.6046 44.0017 11.6575 43.7119 11.7063Z" fill="#D4D4D8"/>
<path d="M9.66005 13.1124C13.2423 12.2168 20.6605 10.3891 21.6748 10.2425C22.9427 10.0593 25.7199 6.15138 27.5916 5.84607C29.0889 5.60182 29.8255 5.50005 30.0066 5.4797C30.0338 4.98509 30.1147 4.22586 30.2704 3.46466C30.4607 2.53433 30.7625 1.60105 31.2141 1.14432C32.2405 0.106266 32.1801 0.472637 33.0858 0.411575C33.8103 0.362725 34.9171 1.20538 35.38 1.63281H36.7687C37.1309 1.10361 38.109 0.0574176 39.1233 0.106267C40.1376 0.155116 40.6729 1.14432 40.8138 1.63281L41.2968 3.15935C41.0325 3.03991 40.6906 2.88615 40.3308 2.7255C39.4031 2.31123 38.3569 1.85119 38.2177 1.81599C38.0245 1.76714 37.9359 1.75493 37.9158 1.75493C38.0969 1.46998 38.5558 0.900068 38.9422 0.900068C39.4252 0.900068 39.9082 1.08326 40.1497 1.63281C40.3429 2.07245 40.3509 2.54445 40.3308 2.7255C40.6906 2.88615 41.0325 3.03991 41.2968 3.15935L40.8138 1.63281C40.6729 1.14432 40.1376 0.155116 39.1233 0.106267C38.109 0.0574176 37.1309 1.10361 36.7687 1.63281H35.38C34.9171 1.20538 33.8103 0.362725 33.0858 0.411575C32.1801 0.472637 32.2405 0.106266 31.2141 1.14432C30.7625 1.60105 30.4607 2.53433 30.2704 3.46466C30.384 3.5245 30.5204 3.59506 30.6707 3.67108C30.8519 3.13414 31.359 2.01139 31.9386 1.81599C32.0191 1.71422 32.2646 1.49847 32.6027 1.44962C33.0254 1.38856 33.6895 1.38856 34.2329 1.75493C34.6676 2.04803 34.8165 2.28413 34.8366 2.36555C34.8769 2.77263 34.8366 3.68448 34.3536 4.07528C33.8706 4.46607 33.6694 4.97085 33.6291 5.17439C33.7901 5.90713 34.6072 7.40925 36.5875 7.5558C38.5679 7.70234 39.7472 7.45403 40.0893 7.31155C40.3711 7.23013 41.0432 7.11615 41.478 7.31155C41.9127 7.50695 42.0616 7.5965 42.0817 7.61686C41.8201 8.59384 41.2968 10.7921 41.2968 11.7691C41.2968 12.9903 41.2365 14.3336 42.0817 14.8832C42.7579 15.3228 44.376 15.5549 45.1005 15.6159C45.0804 15.1885 45.2092 14.297 45.8854 14.1505C46.5616 14.0039 47.0124 14.2929 47.1533 14.4558L47.3344 14.7C46.9319 15.331 45.3541 16.654 42.2628 16.8982C39.1716 17.1425 37.9158 17.2035 37.6743 17.2035L35.4404 17.3257C35.1385 19.646 34.3295 24.8851 33.5084 27.2787C32.6873 29.6723 29.8053 34.3602 28.3161 36.2532C27.652 37.2912 25.4784 39.2224 23.3049 39.8574C20.588 40.6512 16.9655 40.7123 16.4825 40.7734C16.0961 40.8222 15.9995 41.3213 14.6712 40.6496C14.0071 40.2222 13.1618 40.0373 11.8336 38.3903C10.9321 37.2725 10.8072 36.1921 10.5657 34.7877C10.4082 33.872 10.3846 30.9001 10.4449 30.8187C11.5518 28.193 13.9467 25.9598 14.1882 25.569C14.4901 25.0805 14.792 24.1035 16.241 23.8593C17.69 23.615 20.4069 23.2487 21.3729 22.7602C22.1457 22.3694 22.7817 21.946 23.003 21.7832C21.9968 21.7628 19.6099 21.6488 18.1126 21.3557C16.241 20.9894 13.4033 21.1726 12.4373 21.3557C11.6645 21.5023 11.6323 21.5796 11.7128 21.6C10.6059 23.269 8.51307 26.8399 8.15066 27.2787C7.54691 28.0098 5.16556 28.5122 4.46776 28.3151C3.381 28.0082 2.53574 25.223 2.05273 23.554C3.68287 20.4195 7.48653 13.9429 9.66005 13.1124Z" fill="#A1A1AA"/>
<path d="M34.0517 3.22041C33.8102 3.68855 33.2185 4.61261 32.7838 4.56377C32.4243 4.52336 31.3894 4.03466 30.6707 3.67108C30.8518 3.13413 31.3589 2.01139 31.9385 1.81599C32.663 1.57174 32.9069 1.63437 33.4479 1.99917C33.8102 2.24342 34.0316 2.9151 34.0517 3.22041Z" fill="#71717A"/>
<path d="M21.6748 10.2425C20.6605 10.389 13.2423 12.2168 9.66005 13.1124C7.48653 13.9428 3.68287 20.4194 2.05273 23.5539C2.13324 23.4929 2.37876 23.3585 2.71687 23.3097C3.05497 23.2608 4.58851 21.9053 5.31301 21.2336C6.9834 19.6867 10.614 16.5929 11.7732 16.5929C13.2222 16.5929 16.724 15.3106 18.4145 14.5168C19.7669 13.8818 22.6005 13.5602 23.8483 13.4788C23.9288 13.377 24.126 13.1124 24.2709 12.8681C24.4521 12.5628 27.1086 9.38763 28.135 9.02126C28.9561 8.72816 29.7249 6.53808 30.0066 5.47968C29.8255 5.50003 29.0889 5.6018 27.5916 5.84605C25.7199 6.15135 22.9427 10.0593 21.6748 10.2425Z" fill="#D4D4D8"/>
<path d="M4.19823 35.6425L3.0188 33.6885L8.09034 34.4213L7.67754 35.2761L5.67251 35.093L4.19823 35.6425Z" fill="#A1A1AA"/>
<path d="M42.0773 7.24375C42.0071 7.12096 41.7517 6.84431 41.2918 6.72003C40.8347 6.59652 40.6351 7.16552 40.6686 7.33029C40.7021 7.49506 40.816 7.52585 40.9176 7.55331C41.1332 7.61157 41.1524 7.53889 41.2962 7.57773C41.4247 7.61247 41.6123 7.74103 41.7081 7.76692C41.78 7.78633 41.9601 7.80387 42.1058 7.71865C42.2515 7.63344 42.1475 7.36655 42.0773 7.24375Z" fill="#3F3F46"/>
<path d="M16.543 41.1991C13.3552 41.0526 11.8337 36.131 11.4714 33.6885L33.9915 38.146C32.6029 38.8788 29.4392 40.2832 27.8936 40.039C25.9616 39.7336 20.5278 41.3823 16.543 41.1991Z" fill="#A1A1AA"/>
<path d="M27.4105 30.0249C25.5787 29.6149 23.6672 30.0249 23.6672 30.0249C23.6672 30.0249 25.8408 30.3302 26.8671 30.6355C27.8935 30.9408 28.7175 31.1601 29.8859 31.5514C30.6929 31.8217 31.2746 31.9177 31.2746 31.9177C29.294 30.797 29.2423 30.4348 27.4105 30.0249Z" fill="#71717A"/>
<path d="M67.0341 40.5V5.59091H74.4148V34.4148H89.3807V40.5H67.0341ZM100.158 40.9943C98.4876 40.9943 96.9989 40.7045 95.6921 40.125C94.3853 39.5341 93.3512 38.6648 92.5898 37.517C91.8398 36.358 91.4648 34.9148 91.4648 33.1875C91.4648 31.733 91.7319 30.5114 92.266 29.5227C92.8001 28.5341 93.5273 27.7386 94.4478 27.1364C95.3682 26.5341 96.4137 26.0795 97.5841 25.7727C98.766 25.4659 100.005 25.25 101.3 25.125C102.823 24.9659 104.05 24.8182 104.982 24.6818C105.914 24.5341 106.59 24.3182 107.01 24.0341C107.431 23.75 107.641 23.3295 107.641 22.7727V22.6705C107.641 21.5909 107.3 20.7557 106.618 20.1648C105.948 19.5739 104.993 19.2784 103.755 19.2784C102.448 19.2784 101.408 19.5682 100.635 20.1477C99.8626 20.7159 99.3512 21.4318 99.1012 22.2955L92.3853 21.75C92.7262 20.1591 93.3966 18.7841 94.3966 17.625C95.3966 16.4545 96.6864 15.5568 98.266 14.9318C99.8569 14.2955 101.698 13.9773 103.789 13.9773C105.243 13.9773 106.635 14.1477 107.965 14.4886C109.306 14.8295 110.493 15.358 111.527 16.0739C112.573 16.7898 113.397 17.7102 113.999 18.8352C114.601 19.9489 114.902 21.2841 114.902 22.8409V40.5H108.016V36.8693H107.811C107.391 37.6875 106.828 38.4091 106.124 39.0341C105.419 39.6477 104.573 40.1307 103.584 40.483C102.596 40.8239 101.453 40.9943 100.158 40.9943ZM102.238 35.983C103.306 35.983 104.249 35.7727 105.067 35.3523C105.885 34.9205 106.527 34.3409 106.993 33.6136C107.459 32.8864 107.692 32.0625 107.692 31.142V28.3636C107.465 28.5114 107.152 28.6477 106.755 28.7727C106.368 28.8864 105.931 28.9943 105.442 29.0966C104.953 29.1875 104.465 29.2727 103.976 29.3523C103.488 29.4205 103.044 29.483 102.647 29.5398C101.794 29.6648 101.05 29.8636 100.414 30.1364C99.7773 30.4091 99.283 30.7784 98.9307 31.2443C98.5785 31.6989 98.4023 32.267 98.4023 32.9489C98.4023 33.9375 98.7603 34.6932 99.4762 35.2159C100.203 35.7273 101.124 35.983 102.238 35.983ZM126.357 25.3636V40.5H119.096V14.3182H126.016V18.9375H126.323C126.903 17.4148 127.874 16.2102 129.238 15.3239C130.602 14.4261 132.255 13.9773 134.198 13.9773C136.016 13.9773 137.602 14.375 138.954 15.1705C140.306 15.9659 141.357 17.1023 142.107 18.5795C142.857 20.0455 143.232 21.7955 143.232 23.8295V40.5H135.971V25.125C135.982 23.5227 135.573 22.2727 134.744 21.375C133.914 20.4659 132.772 20.0114 131.317 20.0114C130.34 20.0114 129.477 20.2216 128.727 20.642C127.988 21.0625 127.408 21.6761 126.988 22.483C126.579 23.2784 126.369 24.2386 126.357 25.3636ZM159.311 50.8636C156.958 50.8636 154.941 50.5398 153.26 49.892C151.589 49.2557 150.26 48.3864 149.271 47.2841C148.282 46.1818 147.64 44.9432 147.345 43.5682L154.061 42.6648C154.265 43.1875 154.589 43.6761 155.032 44.1307C155.475 44.5852 156.061 44.9489 156.788 45.2216C157.527 45.5057 158.424 45.6477 159.481 45.6477C161.061 45.6477 162.362 45.2614 163.385 44.4886C164.419 43.7273 164.936 42.4489 164.936 40.6534V35.8636H164.629C164.311 36.5909 163.833 37.2784 163.197 37.9261C162.561 38.5739 161.743 39.1023 160.743 39.5114C159.743 39.9205 158.549 40.125 157.163 40.125C155.197 40.125 153.407 39.6705 151.794 38.7614C150.191 37.8409 148.913 36.4375 147.958 34.5511C147.015 32.6534 146.544 30.2557 146.544 27.358C146.544 24.392 147.027 21.9148 147.993 19.9261C148.958 17.9375 150.243 16.4489 151.845 15.4602C153.458 14.4716 155.225 13.9773 157.146 13.9773C158.612 13.9773 159.839 14.2273 160.828 14.7273C161.816 15.2159 162.612 15.8295 163.214 16.5682C163.828 17.2955 164.299 18.0114 164.629 18.7159H164.902V14.3182H172.112V40.7557C172.112 42.983 171.566 44.8466 170.475 46.3466C169.385 47.8466 167.873 48.9716 165.941 49.7216C164.021 50.483 161.811 50.8636 159.311 50.8636ZM159.464 34.6705C160.635 34.6705 161.623 34.3807 162.43 33.8011C163.248 33.2102 163.873 32.3693 164.305 31.2784C164.748 30.1761 164.97 28.858 164.97 27.3239C164.97 25.7898 164.754 24.4602 164.322 23.3352C163.89 22.1989 163.265 21.3182 162.447 20.6932C161.629 20.0682 160.635 19.7557 159.464 19.7557C158.271 19.7557 157.265 20.0795 156.447 20.7273C155.629 21.3636 155.01 22.25 154.589 23.3864C154.169 24.5227 153.958 25.8352 153.958 27.3239C153.958 28.8352 154.169 30.142 154.589 31.2443C155.021 32.3352 155.64 33.1818 156.447 33.7841C157.265 34.375 158.271 34.6705 159.464 34.6705ZM176.587 40.5V5.59091H190.564C193.132 5.59091 195.274 5.97159 196.99 6.73295C198.706 7.49432 199.996 8.55114 200.859 9.90341C201.723 11.2443 202.155 12.7898 202.155 14.5398C202.155 15.9034 201.882 17.1023 201.337 18.1364C200.791 19.1591 200.041 20 199.087 20.6591C198.143 21.3068 197.064 21.767 195.848 22.0398V22.3807C197.177 22.4375 198.422 22.8125 199.581 23.5057C200.751 24.1989 201.7 25.1705 202.427 26.4205C203.155 27.6591 203.518 29.1364 203.518 30.8523C203.518 32.7045 203.058 34.358 202.138 35.8125C201.229 37.2557 199.882 38.3977 198.098 39.2386C196.314 40.0795 194.115 40.5 191.501 40.5H176.587ZM183.967 34.4659H189.984C192.041 34.4659 193.541 34.0739 194.484 33.2898C195.427 32.4943 195.899 31.4375 195.899 30.1193C195.899 29.1534 195.666 28.3011 195.2 27.5625C194.734 26.8239 194.07 26.2443 193.206 25.8239C192.354 25.4034 191.337 25.1932 190.155 25.1932H183.967V34.4659ZM183.967 20.1989H189.439C190.45 20.1989 191.348 20.0227 192.132 19.6705C192.927 19.3068 193.552 18.7955 194.007 18.1364C194.473 17.4773 194.706 16.6875 194.706 15.767C194.706 14.5057 194.257 13.4886 193.359 12.7159C192.473 11.9432 191.212 11.5568 189.575 11.5568H183.967V20.1989ZM218.676 41.0114C215.983 41.0114 213.665 40.4659 211.722 39.375C209.79 38.2727 208.301 36.7159 207.256 34.7045C206.211 32.6818 205.688 30.2898 205.688 27.5284C205.688 24.8352 206.211 22.4716 207.256 20.4375C208.301 18.4034 209.773 16.8182 211.671 15.6818C213.58 14.5455 215.818 13.9773 218.387 13.9773C220.114 13.9773 221.722 14.2557 223.211 14.8125C224.711 15.358 226.017 16.1818 227.131 17.2841C228.256 18.3864 229.131 19.7727 229.756 21.4432C230.381 23.1023 230.693 25.0455 230.693 27.2727V29.267H208.586V24.767H223.858C223.858 23.7216 223.631 22.7955 223.176 21.9886C222.722 21.1818 222.091 20.5511 221.284 20.0966C220.489 19.6307 219.563 19.3977 218.506 19.3977C217.404 19.3977 216.426 19.6534 215.574 20.1648C214.733 20.6648 214.074 21.3409 213.597 22.1932C213.12 23.0341 212.875 23.9716 212.864 25.0057V29.2841C212.864 30.5795 213.103 31.6989 213.58 32.642C214.068 33.5852 214.756 34.3125 215.642 34.8239C216.529 35.3352 217.58 35.5909 218.796 35.5909C219.603 35.5909 220.341 35.4773 221.012 35.25C221.682 35.0227 222.256 34.6818 222.733 34.2273C223.211 33.7727 223.574 33.2159 223.824 32.5568L230.54 33C230.199 34.6136 229.5 36.0227 228.443 37.2273C227.398 38.4205 226.046 39.3523 224.387 40.0227C222.739 40.6818 220.836 41.0114 218.676 41.0114ZM241.458 40.9943C239.788 40.9943 238.299 40.7045 236.992 40.125C235.685 39.5341 234.651 38.6648 233.89 37.517C233.14 36.358 232.765 34.9148 232.765 33.1875C232.765 31.733 233.032 30.5114 233.566 29.5227C234.1 28.5341 234.827 27.7386 235.748 27.1364C236.668 26.5341 237.714 26.0795 238.884 25.7727C240.066 25.4659 241.305 25.25 242.6 25.125C244.123 24.9659 245.35 24.8182 246.282 24.6818C247.214 24.5341 247.89 24.3182 248.31 24.0341C248.731 23.75 248.941 23.3295 248.941 22.7727V22.6705C248.941 21.5909 248.6 20.7557 247.918 20.1648C247.248 19.5739 246.293 19.2784 245.055 19.2784C243.748 19.2784 242.708 19.5682 241.935 20.1477C241.163 20.7159 240.651 21.4318 240.401 22.2955L233.685 21.75C234.026 20.1591 234.697 18.7841 235.697 17.625C236.697 16.4545 237.986 15.5568 239.566 14.9318C241.157 14.2955 242.998 13.9773 245.089 13.9773C246.543 13.9773 247.935 14.1477 249.265 14.4886C250.606 14.8295 251.793 15.358 252.827 16.0739C253.873 16.7898 254.697 17.7102 255.299 18.8352C255.901 19.9489 256.202 21.2841 256.202 22.8409V40.5H249.316V36.8693H249.111C248.691 37.6875 248.128 38.4091 247.424 39.0341C246.719 39.6477 245.873 40.1307 244.884 40.483C243.896 40.8239 242.753 40.9943 241.458 40.9943ZM243.538 35.983C244.606 35.983 245.549 35.7727 246.367 35.3523C247.185 34.9205 247.827 34.3409 248.293 33.6136C248.759 32.8864 248.992 32.0625 248.992 31.142V28.3636C248.765 28.5114 248.452 28.6477 248.055 28.7727C247.668 28.8864 247.231 28.9943 246.742 29.0966C246.253 29.1875 245.765 29.2727 245.276 29.3523C244.788 29.4205 244.344 29.483 243.947 29.5398C243.094 29.6648 242.35 29.8636 241.714 30.1364C241.077 30.4091 240.583 30.7784 240.231 31.2443C239.878 31.6989 239.702 32.267 239.702 32.9489C239.702 33.9375 240.06 34.6932 240.776 35.2159C241.503 35.7273 242.424 35.983 243.538 35.983ZM260.396 40.5V14.3182H267.436V18.8864H267.708C268.186 17.2614 268.987 16.0341 270.112 15.2045C271.237 14.3636 272.532 13.9432 273.998 13.9432C274.362 13.9432 274.754 13.9659 275.174 14.0114C275.595 14.0568 275.964 14.1193 276.282 14.1989V20.642C275.941 20.5398 275.47 20.4489 274.867 20.3693C274.265 20.2898 273.714 20.25 273.214 20.25C272.146 20.25 271.191 20.483 270.35 20.9489C269.521 21.4034 268.862 22.0398 268.373 22.858C267.896 23.6761 267.657 24.6193 267.657 25.6875V40.5H260.396Z" fill="#334155"/>
</svg>
